<mxfile host="app.diagrams.net" modified="2023-07-03T05:36:21.805Z" agent="Mozilla/5.0 (Macintosh; Intel Mac OS X 10_15_7) AppleWebKit/537.36 (KHTML, like Gecko) Chrome/97.0.4692.71 Safari/537.36" version="21.5.2" etag="00ocYmzifel4HBAaemo1" type="github">
  <diagram name="페이지-1" id="1YKplY9g-ny5Ne_t3mPR">
    <mxGraphModel>
      <root>
        <mxCell id="0" />
        <mxCell id="1" parent="0" />
      </root>
    </mxGraphModel>
  </diagram>
</mxfile>
